<?xml version="1.0" encoding="utf-8"?>
<svg xmlns="http://www.w3.org/2000/svg" style="margin: auto; background: none; display: block; shape-rendering: auto;" width="280" height="250" preserveAspectRatio="xMidYMid">
<style type="text/css">
  text {
    text-anchor: middle; font-size: 24px; opacity: 0;
  }
</style>
<g style="transform-origin:140px 125px;transform:scale(1)">
<g transform="translate(140,125)">
  <g transform="translate(0,0)"><g class="path" style="transform: scale(0.91); transform-origin: -75.675px -1.237px; animation: 1.11111s linear -0.672222s infinite normal forwards running breath-aee6da4e-e6c5-44c8-9f15-749169584264;"><path d="M0.50-16.34L0.50-16.80L7.99-16.80L7.99-16.34L6.60-16.34L6.60-8.90L11.38-8.90L11.38-16.34L9.96-16.34L9.96-16.80L17.47-16.80L17.47-16.34L16.06-16.34L16.06-0.46L17.47-0.46L17.47 0L9.96 0L9.96-0.46L11.38-0.46L11.38-8.28L6.60-8.28L6.60-0.46L7.99-0.46L7.99 0L0.50 0L0.50-0.46L1.92-0.46L1.92-16.34L0.50-16.34" fill="#51cacc" stroke="none" stroke-width="none" transform="translate(-84.65998554229736,7.163001064161463)" style="fill: rgb(81, 202, 204);"></path></g><g class="path" style="transform: scale(0.91); transform-origin: -59.855px 1.453px; animation: 1.11111s linear -0.611111s infinite normal forwards running breath-aee6da4e-e6c5-44c8-9f15-749169584264;"><path d="M23.98-5.64L23.98-5.64L24.67-5.64L24.67-7.49L24.67-7.49Q24.67-9.77 24.42-10.55L24.42-10.55L24.42-10.55Q24.17-11.33 23.45-11.33L23.45-11.33L23.45-11.33Q23.02-11.33 22.67-11.10L22.67-11.10L22.67-11.10Q22.32-10.87 22.32-10.48L22.32-10.48L22.32-10.48Q22.32-10.08 22.46-9.67L22.46-9.67L23.06-9.67L23.06-9.67Q23.26-9.17 23.26-8.46L23.26-8.46L23.26-8.46Q23.26-7.75 22.66-7.24L22.66-7.24L22.66-7.24Q22.06-6.72 21.14-6.72L21.14-6.72L21.14-6.72Q19.08-6.72 19.08-8.71L19.08-8.71L19.08-8.71Q19.08-11.66 24.10-11.66L24.10-11.66L24.10-11.66Q26.95-11.66 28.04-10.69L28.04-10.69L28.04-10.69Q29.14-9.72 29.14-7.13L29.14-7.13L29.14-2.26L29.14-2.26Q29.14-1.01 29.83-1.01L29.83-1.01L29.83-1.01Q30.65-1.01 30.79-3.48L30.79-3.48L31.15-3.46L31.15-3.46Q31.06-1.34 30.36-0.55L30.36-0.55L30.36-0.55Q29.66 0.24 28.08 0.24L28.08 0.24L28.08 0.24Q25.20 0.24 24.77-1.54L24.77-1.54L24.77-1.54Q24.46-0.62 23.83-0.19L23.83-0.19L23.83-0.19Q23.21 0.24 22.01 0.24L22.01 0.24L22.01 0.24Q18.46 0.24 18.46-2.66L18.46-2.66L18.46-2.66Q18.46-4.37 19.81-5.00L19.81-5.00L19.81-5.00Q21.17-5.64 23.98-5.64zM23.02-2.69L23.02-2.69Q23.02-1.44 23.15-1.08L23.15-1.08L23.15-1.08Q23.28-0.72 23.65-0.72L23.65-0.72L23.65-0.72Q24.02-0.72 24.35-1.33L24.35-1.33L24.35-1.33Q24.67-1.94 24.67-3.02L24.67-3.02L24.67-5.26L24.50-5.26L24.50-5.26Q23.02-5.26 23.02-3.07L23.02-3.07L23.02-2.69" fill="#51cacc" stroke="none" stroke-width="none" transform="translate(-84.65998554229736,7.163001064161463)" style="fill: rgb(157, 248, 113);"></path></g><g class="path" style="transform: scale(0.91); transform-origin: -47.495px 1.333px; animation: 1.11111s linear -0.55s infinite normal forwards running breath-aee6da4e-e6c5-44c8-9f15-749169584264;"><path d="M39.41-10.75L39.41-10.75L39.41-10.75Q38.52-10.75 37.85-9.60L37.85-9.60L37.85-9.60Q37.18-8.45 37.18-6.86L37.18-6.86L37.18-0.43L38.88-0.43L38.88 0L31.39 0L31.39-0.43L32.71-0.43L32.71-10.99L31.39-10.99L31.39-11.42L37.18-11.42L37.18-9.12L37.18-9.12Q37.49-10.34 38.38-11.00L38.38-11.00L38.38-11.00Q39.26-11.66 40.39-11.66L40.39-11.66L40.39-11.66Q41.52-11.66 42.23-11.03L42.23-11.03L42.23-11.03Q42.94-10.39 42.94-9.23L42.94-9.23L42.94-9.23Q42.94-8.06 42.41-7.44L42.41-7.44L42.41-7.44Q41.88-6.82 40.79-6.82L40.79-6.82L40.79-6.82Q39.70-6.82 39.18-7.54L39.18-7.54L39.18-7.54Q38.66-8.26 39.05-9.53L39.05-9.53L39.91-9.53L39.91-9.53Q40.51-10.75 39.41-10.75" fill="#51cacc" stroke="none" stroke-width="none" transform="translate(-84.65998554229736,7.163001064161463)" style="fill: rgb(199, 145, 4);"></path></g><g class="path" style="transform: scale(0.91); transform-origin: -35.615px 1.333px; animation: 1.11111s linear -0.488889s infinite normal forwards running breath-aee6da4e-e6c5-44c8-9f15-749169584264;"><path d="M51.29-10.75L51.29-10.75L51.29-10.75Q50.40-10.75 49.73-9.60L49.73-9.60L49.73-9.60Q49.06-8.45 49.06-6.86L49.06-6.86L49.06-0.43L50.76-0.43L50.76 0L43.27 0L43.27-0.43L44.59-0.43L44.59-10.99L43.27-10.99L43.27-11.42L49.06-11.42L49.06-9.12L49.06-9.12Q49.37-10.34 50.26-11.00L50.26-11.00L50.26-11.00Q51.14-11.66 52.27-11.66L52.27-11.66L52.27-11.66Q53.40-11.66 54.11-11.03L54.11-11.03L54.11-11.03Q54.82-10.39 54.82-9.23L54.82-9.23L54.82-9.23Q54.82-8.06 54.29-7.44L54.29-7.44L54.29-7.44Q53.76-6.82 52.67-6.82L52.67-6.82L52.67-6.82Q51.58-6.82 51.06-7.54L51.06-7.54L51.06-7.54Q50.54-8.26 50.93-9.53L50.93-9.53L51.79-9.53L51.79-9.53Q52.39-10.75 51.29-10.75" fill="#51cacc" stroke="none" stroke-width="none" transform="translate(-84.65998554229736,7.163001064161463)" style="fill: rgb(222, 157, 214);"></path></g><g class="path" style="transform: scale(0.91); transform-origin: -23.605px 4.453px; animation: 1.11111s linear -0.427778s infinite normal forwards running breath-aee6da4e-e6c5-44c8-9f15-749169584264;"><path d="M55.66-10.99L54.67-10.99L54.67-11.42L61.63-11.42L61.63-10.99L60.34-10.99L62.95-3.02L65.74-10.99L64.13-10.99L64.13-11.42L67.51-11.42L67.51-10.99L66.31-10.99L61.82 1.94L61.82 1.94Q61.03 4.20 60.05 5.10L60.05 5.10L60.05 5.10Q59.06 6 57.65 6L57.65 6L57.65 6Q56.23 6 55.42 5.35L55.42 5.35L55.42 5.35Q54.60 4.70 54.60 3.70L54.60 3.70L54.60 3.70Q54.60 2.69 55.13 2.16L55.13 2.16L55.13 2.16Q55.66 1.63 56.52 1.63L56.52 1.63L56.52 1.63Q58.51 1.63 58.51 3.29L58.51 3.29L58.51 3.29Q58.51 3.65 58.37 4.15L58.37 4.15L57.53 4.15L57.53 4.15Q57.34 4.70 57.48 5.06L57.48 5.06L57.48 5.06Q57.62 5.42 58.13 5.42L58.13 5.42L58.13 5.42Q59.11 5.42 59.88 4.45L59.88 4.45L59.88 4.45Q60.65 3.48 61.34 1.49L61.34 1.49L61.87 0L59.76 0L55.66-10.99" fill="#51cacc" stroke="none" stroke-width="none" transform="translate(-84.65998554229736,7.163001064161463)" style="fill: rgb(255, 112, 142);"></path></g><g class="path" style="transform: scale(0.91); transform-origin: -8.79499px 0.133002px; animation: 1.11111s linear -0.366667s infinite normal forwards running breath-aee6da4e-e6c5-44c8-9f15-749169584264;"><path d="M78.89-6.67L72.84-6.67L72.84-7.39L78.89-7.39L78.89-6.67" fill="#51cacc" stroke="none" stroke-width="none" transform="translate(-84.65998554229736,7.163001064161463)" style="fill: rgb(81, 202, 204);"></path></g><g class="path" style="transform: scale(0.91); transform-origin: 10.295px 2.493px; animation: 1.11111s linear -0.305556s infinite normal forwards running breath-aee6da4e-e6c5-44c8-9f15-749169584264;"><path d="M94.80-9.48L94.80-9.48L94.80-9.48Q95.95-9.48 96.89-8.59L96.89-8.59L97.30-9.31L99.91-9.31L99.14-4.94L99.14-4.94Q98.86-3.22 98.86-2.32L98.86-2.32L98.86-2.32Q98.86-1.42 99.13-0.97L99.13-0.97L99.13-0.97Q99.41-0.53 100.22-0.53L100.22-0.53L100.22-0.53Q101.30-0.53 102.25-1.93L102.25-1.93L102.25-1.93Q103.20-3.34 103.20-5.69L103.20-5.69L103.20-5.69Q103.20-9.19 101.16-11.20L101.16-11.20L101.16-11.20Q99.12-13.20 95.48-13.20L95.48-13.20L95.48-13.20Q91.85-13.20 89.30-10.75L89.30-10.75L89.30-10.75Q86.76-8.30 86.76-4.18L86.76-4.18L86.76-4.18Q86.76-2.06 87.52-0.47L87.52-0.47L87.52-0.47Q88.27 1.13 89.54 2.04L89.54 2.04L89.54 2.04Q92.06 3.82 95.42 3.82L95.42 3.82L95.42 3.82Q98.78 3.82 101.14 1.82L101.14 1.82L101.52 2.26L101.52 2.26Q100.46 3.24 98.82 3.82L98.82 3.82L98.82 3.82Q97.18 4.39 95.40 4.39L95.40 4.39L95.40 4.39Q93.62 4.39 91.96 3.89L91.96 3.89L91.96 3.89Q90.29 3.38 88.96 2.38L88.96 2.38L88.96 2.38Q87.62 1.37 86.86-0.29L86.86-0.29L86.86-0.29Q86.09-1.94 86.09-4.08L86.09-4.08L86.09-4.08Q86.09-8.28 88.74-11.00L88.74-11.00L88.74-11.00Q91.39-13.73 95.62-13.73L95.62-13.73L95.62-13.73Q99.29-13.73 101.56-11.65L101.56-11.65L101.56-11.65Q103.82-9.58 103.82-5.86L103.82-5.86L103.82-5.86Q103.82-2.86 102.56-1.34L102.56-1.34L102.56-1.34Q101.30 0.17 98.92 0.17L98.92 0.17L98.92 0.17Q96.53 0.17 95.86-1.56L95.86-1.56L95.86-1.56Q95.23 0.12 93.53 0.12L93.53 0.12L93.53 0.12Q91.82 0.12 90.91-0.94L90.91-0.94L90.91-0.94Q90.00-1.99 90.00-3.53L90.00-3.53L90.00-3.53Q90.00-6.43 91.49-7.96L91.49-7.96L91.49-7.96Q92.98-9.48 94.80-9.48zM95.95-3.12L95.95-3.12L96.77-8.26L96.77-8.26Q96.07-8.98 95.28-8.98L95.28-8.98L95.28-8.98Q94.49-8.98 93.97-8.23L93.97-8.23L93.97-8.23Q93.46-7.49 93.22-6.34L93.22-6.34L93.22-6.34Q92.78-4.27 92.78-2.33L92.78-2.33L92.78-2.33Q92.78-0.38 94.01-0.38L94.01-0.38L94.01-0.38Q94.70-0.38 95.23-1.15L95.23-1.15L95.23-1.15Q95.76-1.92 95.95-3.12" fill="#51cacc" stroke="none" stroke-width="none" transform="translate(-84.65998554229736,7.163001064161463)" style="fill: rgb(157, 248, 113);"></path></g><g class="path" style="transform: scale(0.91); transform-origin: 28.295px -1.837px; animation: 1.11111s linear -0.244444s infinite normal forwards running breath-aee6da4e-e6c5-44c8-9f15-749169584264;"><path d="M105.74-17.57L105.74-18L111.53-18L111.53-9.22L111.53-9.22Q111.91-10.32 112.70-10.99L112.70-10.99L112.70-10.99Q113.50-11.66 115.10-11.66L115.10-11.66L115.10-11.66Q118.82-11.66 118.82-7.66L118.82-7.66L118.82-0.43L120.17-0.43L120.17 0L113.38 0L113.38-0.43L114.36-0.43L114.36-8.23L114.36-8.23Q114.36-9.67 114.17-10.09L114.17-10.09L114.17-10.09Q113.98-10.51 113.47-10.51L113.47-10.51L113.47-10.51Q112.70-10.51 112.12-9.50L112.12-9.50L112.12-9.50Q111.53-8.50 111.53-7.06L111.53-7.06L111.53-0.43L112.56-0.43L112.56 0L105.74 0L105.74-0.43L107.06-0.43L107.06-17.57L105.74-17.57" fill="#51cacc" stroke="none" stroke-width="none" transform="translate(-84.65998554229736,7.163001064161463)" style="fill: rgb(199, 145, 4);"></path></g><g class="path" style="transform: scale(0.91); transform-origin: 42.455px 1.453px; animation: 1.11111s linear -0.183333s infinite normal forwards running breath-aee6da4e-e6c5-44c8-9f15-749169584264;"><path d="M126.29-5.64L126.29-5.64L126.98-5.64L126.98-7.49L126.98-7.49Q126.98-9.77 126.73-10.55L126.73-10.55L126.73-10.55Q126.48-11.33 125.76-11.33L125.76-11.33L125.76-11.33Q125.33-11.33 124.98-11.10L124.98-11.10L124.98-11.10Q124.63-10.87 124.63-10.48L124.63-10.48L124.63-10.48Q124.63-10.08 124.78-9.67L124.78-9.67L125.38-9.67L125.38-9.67Q125.57-9.17 125.57-8.46L125.57-8.46L125.57-8.46Q125.57-7.75 124.97-7.24L124.97-7.24L124.97-7.24Q124.37-6.72 123.46-6.72L123.46-6.72L123.46-6.72Q121.39-6.72 121.39-8.71L121.39-8.71L121.39-8.71Q121.39-11.66 126.41-11.66L126.41-11.66L126.41-11.66Q129.26-11.66 130.36-10.69L130.36-10.69L130.36-10.69Q131.45-9.72 131.45-7.13L131.45-7.13L131.45-2.26L131.45-2.26Q131.45-1.01 132.14-1.01L132.14-1.01L132.14-1.01Q132.96-1.01 133.10-3.48L133.10-3.48L133.46-3.46L133.46-3.46Q133.37-1.34 132.67-0.55L132.67-0.55L132.67-0.55Q131.98 0.24 130.39 0.24L130.39 0.24L130.39 0.24Q127.51 0.24 127.08-1.54L127.08-1.54L127.08-1.54Q126.77-0.62 126.14-0.19L126.14-0.19L126.14-0.19Q125.52 0.24 124.32 0.24L124.32 0.24L124.32 0.24Q120.77 0.24 120.77-2.66L120.77-2.66L120.77-2.66Q120.77-4.37 122.12-5.00L122.12-5.00L122.12-5.00Q123.48-5.64 126.29-5.64zM125.33-2.69L125.33-2.69Q125.33-1.44 125.46-1.08L125.46-1.08L125.46-1.08Q125.59-0.72 125.96-0.72L125.96-0.72L125.96-0.72Q126.34-0.72 126.66-1.33L126.66-1.33L126.66-1.33Q126.98-1.94 126.98-3.02L126.98-3.02L126.98-5.26L126.82-5.26L126.82-5.26Q125.33-5.26 125.33-3.07L125.33-3.07L125.33-2.69" fill="#51cacc" stroke="none" stroke-width="none" transform="translate(-84.65998554229736,7.163001064161463)" style="fill: rgb(222, 157, 214);"></path></g><g class="path" style="transform: scale(0.91); transform-origin: 54.815px 1.333px; animation: 1.11111s linear -0.122222s infinite normal forwards running breath-aee6da4e-e6c5-44c8-9f15-749169584264;"><path d="M141.72-10.75L141.72-10.75L141.72-10.75Q140.83-10.75 140.16-9.60L140.16-9.60L140.16-9.60Q139.49-8.45 139.49-6.86L139.49-6.86L139.49-0.43L141.19-0.43L141.19 0L133.70 0L133.70-0.43L135.02-0.43L135.02-10.99L133.70-10.99L133.70-11.42L139.49-11.42L139.49-9.12L139.49-9.12Q139.80-10.34 140.69-11.00L140.69-11.00L140.69-11.00Q141.58-11.66 142.70-11.66L142.70-11.66L142.70-11.66Q143.83-11.66 144.54-11.03L144.54-11.03L144.54-11.03Q145.25-10.39 145.25-9.23L145.25-9.23L145.25-9.23Q145.25-8.06 144.72-7.44L144.72-7.44L144.72-7.44Q144.19-6.82 143.10-6.82L143.10-6.82L143.10-6.82Q142.01-6.82 141.49-7.54L141.49-7.54L141.49-7.54Q140.98-8.26 141.36-9.53L141.36-9.53L142.22-9.53L142.22-9.53Q142.82-10.75 141.72-10.75" fill="#51cacc" stroke="none" stroke-width="none" transform="translate(-84.65998554229736,7.163001064161463)" style="fill: rgb(255, 112, 142);"></path></g><g class="path" style="transform: scale(0.91); transform-origin: 66.695px 1.333px; animation: 1.11111s linear -0.0611111s infinite normal forwards running breath-aee6da4e-e6c5-44c8-9f15-749169584264;"><path d="M153.60-10.75L153.60-10.75L153.60-10.75Q152.71-10.75 152.04-9.60L152.04-9.60L152.04-9.60Q151.37-8.45 151.37-6.86L151.37-6.86L151.37-0.43L153.07-0.43L153.07 0L145.58 0L145.58-0.43L146.90-0.43L146.90-10.99L145.58-10.99L145.58-11.42L151.37-11.42L151.37-9.12L151.37-9.12Q151.68-10.34 152.57-11.00L152.57-11.00L152.57-11.00Q153.46-11.66 154.58-11.66L154.58-11.66L154.58-11.66Q155.71-11.66 156.42-11.03L156.42-11.03L156.42-11.03Q157.13-10.39 157.13-9.23L157.13-9.23L157.13-9.23Q157.13-8.06 156.60-7.44L156.60-7.44L156.60-7.44Q156.07-6.82 154.98-6.82L154.98-6.82L154.98-6.82Q153.89-6.82 153.37-7.54L153.37-7.54L153.37-7.54Q152.86-8.26 153.24-9.53L153.24-9.53L154.10-9.53L154.10-9.53Q154.70-10.75 153.60-10.75" fill="#51cacc" stroke="none" stroke-width="none" transform="translate(-84.65998554229736,7.163001064161463)" style="fill: rgb(81, 202, 204);"></path></g><g class="path" style="transform: scale(0.91); transform-origin: 78.705px 4.453px; animation: 1.11111s linear 0s infinite normal forwards running breath-aee6da4e-e6c5-44c8-9f15-749169584264;"><path d="M157.97-10.99L156.98-10.99L156.98-11.42L163.94-11.42L163.94-10.99L162.65-10.99L165.26-3.02L168.05-10.99L166.44-10.99L166.44-11.42L169.82-11.42L169.82-10.99L168.62-10.99L164.14 1.94L164.14 1.94Q163.34 4.20 162.36 5.10L162.36 5.10L162.36 5.10Q161.38 6 159.96 6L159.96 6L159.96 6Q158.54 6 157.73 5.35L157.73 5.35L157.73 5.35Q156.91 4.70 156.91 3.70L156.91 3.70L156.91 3.70Q156.91 2.69 157.44 2.16L157.44 2.16L157.44 2.16Q157.97 1.63 158.83 1.63L158.83 1.63L158.83 1.63Q160.82 1.63 160.82 3.29L160.82 3.29L160.82 3.29Q160.82 3.65 160.68 4.15L160.68 4.15L159.84 4.15L159.84 4.15Q159.65 4.70 159.79 5.06L159.79 5.06L159.79 5.06Q159.94 5.42 160.44 5.42L160.44 5.42L160.44 5.42Q161.42 5.42 162.19 4.45L162.19 4.45L162.19 4.45Q162.96 3.48 163.66 1.49L163.66 1.49L164.18 0L162.07 0L157.97-10.99" fill="#51cacc" stroke="none" stroke-width="none" transform="translate(-84.65998554229736,7.163001064161463)" style="fill: rgb(157, 248, 113);"></path></g></g>
</g>
</g>
<style id="breath-aee6da4e-e6c5-44c8-9f15-749169584264" data-anikit="">@keyframes breath-aee6da4e-e6c5-44c8-9f15-749169584264
{
  0% {
    animation-timing-function: cubic-bezier(0.9647,0.2413,-0.0705,0.7911);
    transform: scale(0.9099999999999999);
  }
  51% {
    animation-timing-function: cubic-bezier(0.9226,0.2631,-0.0308,0.7628);
    transform: scale(1.02994);
  }
  100% {
    transform: scale(0.9099999999999999);
  }
}</style></svg>